<svg id="Group_7985" data-name="Group 7985" xmlns="http://www.w3.org/2000/svg" width="125.917" height="65.891" viewBox="0 0 125.917 65.891">
  <g id="Group_1219" data-name="Group 1219" transform="translate(0 59.469)">
    <g id="Group_1218" data-name="Group 1218">
      <g id="Group_1217" data-name="Group 1217">
        <g id="Group_1216" data-name="Group 1216">
          <rect id="Rectangle_22324" data-name="Rectangle 22324" width="125.917" height="6.422" fill="#49194f"/>
        </g>
      </g>
    </g>
  </g>
  <g id="Group_1310" data-name="Group 1310" transform="translate(13.898 0)">
    <g id="Group_1223" data-name="Group 1223" transform="translate(0.933 1.997)">
      <g id="Group_1222" data-name="Group 1222">
        <g id="Group_1221" data-name="Group 1221">
          <g id="Group_1220" data-name="Group 1220">
            <path id="Path_862" data-name="Path 862" d="M397.34,299.08a45.284,45.284,0,0,1,15.308-6.245,46.61,46.61,0,0,1,25.742,2.176,43.834,43.834,0,0,1,10.775-6.458c12.778-5.325,24.685-3.043,29.728-1.743q10.9,28.23,21.806,56.456H418.217Z" transform="translate(-397.34 -285.193)" fill="#49194f"/>
          </g>
        </g>
      </g>
    </g>
    <g id="Group_1227" data-name="Group 1227" transform="translate(3.635 6.977)">
      <g id="Group_1226" data-name="Group 1226">
        <g id="Group_1225" data-name="Group 1225">
          <g id="Group_1224" data-name="Group 1224">
            <path id="Path_863" data-name="Path 863" d="M403.45,303.529a34.426,34.426,0,0,1,14.026-6.3,29.111,29.111,0,0,1,16.6.977,27.359,27.359,0,0,1,9.2,5.887q9.322,21.211,18.648,42.426a100.223,100.223,0,0,1-41.515.5q-3.41-9.527-7.2-19.355Q408.4,315.212,403.45,303.529Z" transform="translate(-403.45 -296.453)" fill="#fff"/>
          </g>
        </g>
      </g>
    </g>
    <g id="Group_1231" data-name="Group 1231" transform="translate(3.309 6.645)">
      <g id="Group_1230" data-name="Group 1230">
        <g id="Group_1229" data-name="Group 1229">
          <g id="Group_1228" data-name="Group 1228">
            <path id="Path_864" data-name="Path 864" d="M439.546,348.858c-.442,0-.885,0-1.327-.009a100.9,100.9,0,0,1-18.285-1.924.327.327,0,0,1-.248-.212c-2.309-6.453-4.733-12.96-7.2-19.347-3.109-8.054-6.391-16.171-9.749-24.128a.33.33,0,0,1,.106-.394,34.882,34.882,0,0,1,14.163-6.365,29.532,29.532,0,0,1,16.781.991,27.587,27.587,0,0,1,9.311,5.958.281.281,0,0,1,.071.106l18.648,42.426a.332.332,0,0,1-.23.456A101.138,101.138,0,0,1,439.546,348.858Zm-19.3-2.548a99.958,99.958,0,0,0,40.8-.451l-18.462-42a26.884,26.884,0,0,0-9.036-5.772,28.887,28.887,0,0,0-16.419-.96,34.243,34.243,0,0,0-13.685,6.091c3.326,7.886,6.577,15.928,9.656,23.907C415.547,333.457,417.953,339.91,420.244,346.31Z" transform="translate(-402.712 -295.702)" fill="#49194f"/>
          </g>
        </g>
      </g>
    </g>
    <g id="Group_1235" data-name="Group 1235" transform="translate(43.461 2.134)">
      <g id="Group_1234" data-name="Group 1234">
        <g id="Group_1233" data-name="Group 1233">
          <g id="Group_1232" data-name="Group 1232">
            <path id="Path_865" data-name="Path 865" d="M493.49,297.979a30.822,30.822,0,0,1,17.489-11.748,29.264,29.264,0,0,1,12.2-.164q12.712,28.224,25.424,56.452a115.906,115.906,0,0,0-36.473-2.114Q502.812,319.195,493.49,297.979Z" transform="translate(-493.49 -285.503)" fill="#fff"/>
          </g>
        </g>
      </g>
    </g>
    <g id="Group_1239" data-name="Group 1239" transform="translate(43.127 1.8)">
      <g id="Group_1238" data-name="Group 1238">
        <g id="Group_1237" data-name="Group 1237">
          <g id="Group_1236" data-name="Group 1236">
            <path id="Path_866" data-name="Path 866" d="M548.189,342.431a.386.386,0,0,1-.071-.009,115.894,115.894,0,0,0-36.371-2.11.333.333,0,0,1-.336-.195l-18.648-42.426a.331.331,0,0,1,.035-.332,30.952,30.952,0,0,1,17.684-11.872,29.377,29.377,0,0,1,12.345-.164.338.338,0,0,1,.239.19l25.424,56.452a.326.326,0,0,1-.044.345A.337.337,0,0,1,548.189,342.431Zm-24.858-3.357c3.848,0,7.7.19,11.509.571a116.934,116.934,0,0,1,12.778,1.99l-25.088-55.691a28.659,28.659,0,0,0-11.9.195,30.249,30.249,0,0,0-17.184,11.469l18.475,42.028C515.715,339.259,519.528,339.073,523.332,339.073Z" transform="translate(-492.735 -284.748)" fill="#49194f"/>
          </g>
        </g>
      </g>
    </g>
    <g id="Group_1243" data-name="Group 1243" transform="translate(43.461 0.337)">
      <g id="Group_1242" data-name="Group 1242">
        <g id="Group_1241" data-name="Group 1241">
          <g id="Group_1240" data-name="Group 1240">
            <path id="Path_867" data-name="Path 867" d="M493.49,295.714A34.763,34.763,0,0,1,513.1,282.339a33.307,33.307,0,0,1,14.517-.186q11.053,28,22.1,56a51.385,51.385,0,0,0-12.044-3.092,53.146,53.146,0,0,0-25.53,3.074Z" transform="translate(-493.49 -281.441)" fill="#fff"/>
          </g>
        </g>
      </g>
    </g>
    <g id="Group_1247" data-name="Group 1247" transform="translate(43.131)">
      <g id="Group_1246" data-name="Group 1246">
        <g id="Group_1245" data-name="Group 1245">
          <g id="Group_1244" data-name="Group 1244">
            <path id="Path_868" data-name="Path 868" d="M549.3,338.065a.38.38,0,0,1-.119-.022,51.185,51.185,0,0,0-11.965-3.074,52.943,52.943,0,0,0-25.371,3.056.334.334,0,0,1-.42-.177l-18.648-42.426a.323.323,0,0,1,.035-.327,34.935,34.935,0,0,1,19.8-13.5,33.3,33.3,0,0,1,14.658-.186.333.333,0,0,1,.243.2l22.1,56a.328.328,0,0,1-.075.354A.351.351,0,0,1,549.3,338.065Zm-55.842-42.732L511.9,337.3a53.555,53.555,0,0,1,25.4-2.981,51.609,51.609,0,0,1,11.416,2.844l-21.757-55.134a32.667,32.667,0,0,0-14.194.217A34.142,34.142,0,0,0,493.455,295.333Z" transform="translate(-492.745 -280.679)" fill="#49194f"/>
          </g>
        </g>
      </g>
    </g>
    <g id="Group_1256" data-name="Group 1256" transform="translate(0 8.907)">
      <g id="Group_1251" data-name="Group 1251" transform="translate(0.331 0.335)">
        <g id="Group_1250" data-name="Group 1250">
          <g id="Group_1249" data-name="Group 1249">
            <g id="Group_1248" data-name="Group 1248">
              <path id="Path_869" data-name="Path 869" d="M395.98,315.04c.84-1.783,5.255-8.89,18.842-12.424,13.822-3.592,22.85,3.158,24.283,4.326q9.322,21.211,18.648,42.426c-26.317-6.038-31.4.442-44.722.814C404.747,339.553,404.269,325.669,395.98,315.04Z" transform="translate(-395.98 -301.574)" fill="#fff"/>
            </g>
          </g>
        </g>
      </g>
      <g id="Group_1255" data-name="Group 1255">
        <g id="Group_1254" data-name="Group 1254">
          <g id="Group_1253" data-name="Group 1253">
            <g id="Group_1252" data-name="Group 1252">
              <path id="Path_870" data-name="Path 870" d="M412.613,350.091a.333.333,0,0,1-.261-.128c-4.175-5.356-6.413-11.611-8.576-17.661-2.145-6-4.366-12.208-8.475-17.48a.336.336,0,0,1-.04-.345,17.883,17.883,0,0,1,4.728-5.666,36.246,36.246,0,0,1,14.331-6.935c13.853-3.6,22.9,3.025,24.575,4.388a.366.366,0,0,1,.093.124l18.648,42.426a.337.337,0,0,1-.049.345.321.321,0,0,1-.327.111c-17.94-4.113-25.849-2.415-33.5-.778a57.721,57.721,0,0,1-11.137,1.6Zm-16.662-35.513c4.1,5.321,6.307,11.509,8.448,17.5,2.128,5.949,4.326,12.1,8.373,17.347a57.808,57.808,0,0,0,10.85-1.579c7.63-1.637,15.516-3.326,33.147.633l-18.351-41.75c-1.782-1.433-10.549-7.687-23.929-4.211a35.546,35.546,0,0,0-14.074,6.8A17.835,17.835,0,0,0,395.951,314.578Z" transform="translate(-395.231 -300.816)" fill="#49194f"/>
            </g>
          </g>
        </g>
      </g>
    </g>
    <g id="Group_1265" data-name="Group 1265" transform="translate(43.13 3.782)">
      <g id="Group_1260" data-name="Group 1260" transform="translate(0.331 0.33)">
        <g id="Group_1259" data-name="Group 1259">
          <g id="Group_1258" data-name="Group 1258">
            <g id="Group_1257" data-name="Group 1257">
              <path id="Path_871" data-name="Path 871" d="M493.49,300.473A31.569,31.569,0,0,1,514.2,290.11c13.088-.973,18.259,3.636,18.259,3.636l21.863,48.508s-23.655-12.305-41.475.646Z" transform="translate(-493.49 -289.975)" fill="#fff"/>
            </g>
          </g>
        </g>
      </g>
      <g id="Group_1264" data-name="Group 1264">
        <g id="Group_1263" data-name="Group 1263">
          <g id="Group_1262" data-name="Group 1262">
            <g id="Group_1261" data-name="Group 1261">
              <path id="Path_872" data-name="Path 872" d="M512.428,342.815a.537.537,0,0,1-.084-.009.331.331,0,0,1-.217-.181L492.772,300.2a.326.326,0,0,1,.044-.345,32.172,32.172,0,0,1,20.939-10.487c13.075-.973,18.289,3.525,18.5,3.72a.407.407,0,0,1,.084.111L554.2,341.7a.332.332,0,0,1-.075.376.329.329,0,0,1-.38.053,54.578,54.578,0,0,0-13.981-4.507c-7.36-1.314-18.042-1.491-27.149,5.126A.326.326,0,0,1,512.428,342.815Zm-18.966-42.7,19.1,41.869c9.227-6.52,19.939-6.329,27.344-5a56.95,56.95,0,0,1,13.322,4.167l-21.461-47.606c-.566-.456-5.865-4.405-17.962-3.512A31.465,31.465,0,0,0,493.462,300.115Z" transform="translate(-492.741 -289.229)" fill="#49194f"/>
            </g>
          </g>
        </g>
      </g>
    </g>
    <g id="Group_1269" data-name="Group 1269" transform="translate(8.744 12.514)">
      <g id="Group_1268" data-name="Group 1268">
        <g id="Group_1267" data-name="Group 1267">
          <g id="Group_1266" data-name="Group 1266">
            <path id="Path_873" data-name="Path 873" d="M446.223,311.457A37.859,37.859,0,0,0,415,313.381q1.612,4.956,3.229,9.908a35.7,35.7,0,0,1,15.3-4.153s2.76-.084,15.8,1.743h0Z" transform="translate(-415 -308.973)" fill="#00adbb"/>
          </g>
        </g>
      </g>
    </g>
    <g id="Group_1273" data-name="Group 1273" transform="translate(9.983 13.998)">
      <g id="Group_1272" data-name="Group 1272">
        <g id="Group_1271" data-name="Group 1271">
          <g id="Group_1270" data-name="Group 1270">
            <path id="Path_874" data-name="Path 874" d="M421.237,327.442,417.8,316.9l.248-.128a38,38,0,0,1,14.919-4.33,38.531,38.531,0,0,1,16.573,2.393l.146.057,3.326,10.076-.526-.075c-12.814-1.8-15.72-1.747-15.746-1.738a35.837,35.837,0,0,0-15.158,4.118ZM418.6,317.224l3.025,9.275a36.34,36.34,0,0,1,15.092-4.016c.111,0,2.862-.062,15.33,1.672l-2.893-8.767a37.5,37.5,0,0,0-30.555,1.836Z" transform="translate(-417.8 -312.326)" fill="#49194f"/>
          </g>
        </g>
      </g>
    </g>
    <g id="Group_1277" data-name="Group 1277" transform="translate(49.171 7.303)">
      <g id="Group_1276" data-name="Group 1276">
        <g id="Group_1275" data-name="Group 1275">
          <g id="Group_1274" data-name="Group 1274">
            <path id="Path_875" data-name="Path 875" d="M506.4,304.718a36.489,36.489,0,0,1,31.475-6.334l3.406,7.126a54.9,54.9,0,0,0-30.957,7.037Z" transform="translate(-506.4 -297.19)" fill="#d9f3f5"/>
          </g>
        </g>
      </g>
    </g>
    <g id="Group_1281" data-name="Group 1281" transform="translate(48.636 8.807)">
      <g id="Group_1280" data-name="Group 1280">
        <g id="Group_1279" data-name="Group 1279">
          <g id="Group_1278" data-name="Group 1278">
            <path id="Path_876" data-name="Path 876" d="M509.392,316.735l-4.2-8.382.217-.168a36.81,36.81,0,0,1,31.758-6.391l.15.04,3.72,7.776-.566-.04a54.553,54.553,0,0,0-30.776,6.993Zm-3.362-8.187,3.64,7.267a55.237,55.237,0,0,1,30.281-6.94l-3.1-6.475a36.144,36.144,0,0,0-30.825,6.148Z" transform="translate(-505.19 -300.591)" fill="#49194f"/>
          </g>
        </g>
      </g>
    </g>
    <g id="Group_1285" data-name="Group 1285" transform="translate(54.262 22.322)">
      <g id="Group_1284" data-name="Group 1284">
        <g id="Group_1283" data-name="Group 1283">
          <g id="Group_1282" data-name="Group 1282">
            <path id="Path_877" data-name="Path 877" d="M518.2,336.867l-.292-.593a49.686,49.686,0,0,1,30.55-4.383l-.115.655a49.036,49.036,0,0,0-30.143,4.321Z" transform="translate(-517.91 -331.146)" fill="#49194f"/>
          </g>
        </g>
      </g>
    </g>
    <g id="Group_1289" data-name="Group 1289" transform="translate(55.726 25.899)">
      <g id="Group_1288" data-name="Group 1288">
        <g id="Group_1287" data-name="Group 1287">
          <g id="Group_1286" data-name="Group 1286">
            <path id="Path_878" data-name="Path 878" d="M521.485,344.022l-.265-.606A50.361,50.361,0,0,1,551.9,340.36l-.137.646a49.661,49.661,0,0,0-30.276,3.017Z" transform="translate(-521.22 -339.234)" fill="#49194f"/>
          </g>
        </g>
      </g>
    </g>
    <g id="Group_1293" data-name="Group 1293" transform="translate(57.911 30.651)">
      <g id="Group_1292" data-name="Group 1292">
        <g id="Group_1291" data-name="Group 1291">
          <g id="Group_1290" data-name="Group 1290">
            <path id="Path_879" data-name="Path 879" d="M526.536,354.866l-.376-.544a24.5,24.5,0,0,1,6.153-3.074,25.188,25.188,0,0,1,11.1-1.07l-.084.659a24.535,24.535,0,0,0-10.806,1.039A24.059,24.059,0,0,0,526.536,354.866Z" transform="translate(-526.16 -349.976)" fill="#49194f"/>
          </g>
        </g>
      </g>
    </g>
    <g id="Group_1297" data-name="Group 1297" transform="translate(59.265 34.801)">
      <g id="Group_1296" data-name="Group 1296">
        <g id="Group_1295" data-name="Group 1295">
          <g id="Group_1294" data-name="Group 1294">
            <path id="Path_880" data-name="Path 880" d="M529.53,363.283l-.31-.584a28.421,28.421,0,0,1,16.153-3.2l-.066.659a27.765,27.765,0,0,0-15.777,3.127Z" transform="translate(-529.22 -359.359)" fill="#49194f"/>
          </g>
        </g>
      </g>
    </g>
    <g id="Group_1301" data-name="Group 1301" transform="translate(60.954 38.526)">
      <g id="Group_1300" data-name="Group 1300">
        <g id="Group_1299" data-name="Group 1299">
          <g id="Group_1298" data-name="Group 1298">
            <path id="Path_881" data-name="Path 881" d="M533.4,371.925l-.363-.557a22.041,22.041,0,0,1,16.073-3.216l-.119.65a21.353,21.353,0,0,0-15.591,3.123Z" transform="translate(-533.04 -367.782)" fill="#49194f"/>
          </g>
        </g>
      </g>
    </g>
    <g id="Group_1305" data-name="Group 1305" transform="translate(77.028 32.131)">
      <g id="Group_1304" data-name="Group 1304">
        <g id="Group_1303" data-name="Group 1303">
          <g id="Group_1302" data-name="Group 1302">
            <path id="Path_882" data-name="Path 882" d="M569.38,354.958q1.261,3.715,2.517,7.431a59.974,59.974,0,0,1,6.86-.526c1.933-.04,3.742.018,5.409.133l-2.919-8.081a17.43,17.43,0,0,0-11.867,1.044Z" transform="translate(-569.38 -353.322)" fill="#a14cdc"/>
          </g>
        </g>
      </g>
    </g>
    <g id="Group_1309" data-name="Group 1309" transform="translate(77.342 30.091)">
      <g id="Group_1308" data-name="Group 1308">
        <g id="Group_1307" data-name="Group 1307">
          <g id="Group_1306" data-name="Group 1306">
            <path id="Path_883" data-name="Path 883" d="M572.788,358.472l-2.7-7.97.27-.124a17.763,17.763,0,0,1,12.1-1.066l.168.044,3.149,8.722-.509-.035c-1.782-.124-3.591-.168-5.378-.133a59.773,59.773,0,0,0-6.825.526Zm-1.88-7.617,2.331,6.891a61.568,61.568,0,0,1,6.626-.5c1.637-.031,3.3,0,4.932.1l-2.685-7.44a17.117,17.117,0,0,0-11.2.942Z" transform="translate(-570.09 -348.711)" fill="#49194f"/>
          </g>
        </g>
      </g>
    </g>
  </g>
  <g id="Group_1421" data-name="Group 1421" transform="translate(3.684 19.674)">
    <g id="Group_1314" data-name="Group 1314" transform="translate(10.713 1.561)">
      <g id="Group_1313" data-name="Group 1313">
        <g id="Group_1312" data-name="Group 1312">
          <g id="Group_1311" data-name="Group 1311">
            <rect id="Rectangle_22325" data-name="Rectangle 22325" width="48.349" height="14.817" fill="#fff"/>
          </g>
        </g>
      </g>
    </g>
    <g id="Group_1318" data-name="Group 1318" transform="translate(10.713)">
      <g id="Group_1317" data-name="Group 1317">
        <g id="Group_1316" data-name="Group 1316">
          <g id="Group_1315" data-name="Group 1315">
            <rect id="Rectangle_22326" data-name="Rectangle 22326" width="47.084" height="15.295" fill="#fcb515"/>
          </g>
        </g>
      </g>
    </g>
    <g id="Group_1322" data-name="Group 1322" transform="translate(10.381 1.23)">
      <g id="Group_1321" data-name="Group 1321">
        <g id="Group_1320" data-name="Group 1320">
          <g id="Group_1319" data-name="Group 1319">
            <path id="Path_884" data-name="Path 884" d="M444.622,343.421H395.61V327.94h49.012Zm-48.349-.663h47.69V328.6h-47.69Z" transform="translate(-395.61 -327.94)" fill="#49194f"/>
          </g>
        </g>
      </g>
    </g>
    <g id="Group_1326" data-name="Group 1326" transform="translate(10.713 1.561)">
      <g id="Group_1325" data-name="Group 1325">
        <g id="Group_1324" data-name="Group 1324">
          <g id="Group_1323" data-name="Group 1323">
            <path id="Path_885" data-name="Path 885" d="M396.36,328.69s3,4.45,2.994,7.409c-.009,2.672-2.994,7.409-2.994,7.409Z" transform="translate(-396.36 -328.69)" fill="#49194f"/>
          </g>
        </g>
      </g>
    </g>
    <g id="Group_1359" data-name="Group 1359" transform="translate(0 28.003)">
      <g id="Group_1330" data-name="Group 1330" transform="translate(2.406 0.663)">
        <g id="Group_1329" data-name="Group 1329">
          <g id="Group_1328" data-name="Group 1328">
            <g id="Group_1327" data-name="Group 1327">
              <path id="Path_886" data-name="Path 886" d="M377.828,401.09h62.184V389.97H377.58S382.149,394.632,377.828,401.09Z" transform="translate(-377.58 -389.97)" fill="#fff"/>
            </g>
          </g>
        </g>
      </g>
      <g id="Group_1334" data-name="Group 1334" transform="translate(4.383 0.663)">
        <g id="Group_1333" data-name="Group 1333">
          <g id="Group_1332" data-name="Group 1332">
            <g id="Group_1331" data-name="Group 1331">
              <path id="Path_887" data-name="Path 887" d="M382.284,399.48H442.5v-9.51H382.05S386.469,393.96,382.284,399.48Z" transform="translate(-382.05 -389.97)" fill="#f5edfc"/>
            </g>
          </g>
        </g>
      </g>
      <g id="Group_1338" data-name="Group 1338" transform="translate(61.847 0.663)">
        <g id="Group_1337" data-name="Group 1337">
          <g id="Group_1336" data-name="Group 1336">
            <g id="Group_1335" data-name="Group 1335">
              <path id="Path_888" data-name="Path 888" d="M514.657,389.97s-2.76,3.039-2.689,5.56,2.689,5.56,2.689,5.56Z" transform="translate(-511.967 -389.97)" fill="#49194f"/>
            </g>
          </g>
        </g>
      </g>
      <g id="Group_1342" data-name="Group 1342" transform="translate(3.95 2.331)">
        <g id="Group_1341" data-name="Group 1341">
          <g id="Group_1340" data-name="Group 1340">
            <g id="Group_1339" data-name="Group 1339">
              <rect id="Rectangle_22327" data-name="Rectangle 22327" width="36.318" height="0.663" fill="#49194f"/>
            </g>
          </g>
        </g>
      </g>
      <g id="Group_1346" data-name="Group 1346" transform="translate(4.383 3.963)">
        <g id="Group_1345" data-name="Group 1345">
          <g id="Group_1344" data-name="Group 1344">
            <g id="Group_1343" data-name="Group 1343">
              <rect id="Rectangle_22328" data-name="Rectangle 22328" width="52.666" height="0.663" fill="#49194f"/>
            </g>
          </g>
        </g>
      </g>
      <g id="Group_1350" data-name="Group 1350" transform="translate(4.383 7.453)">
        <g id="Group_1349" data-name="Group 1349">
          <g id="Group_1348" data-name="Group 1348">
            <g id="Group_1347" data-name="Group 1347">
              <rect id="Rectangle_22329" data-name="Rectangle 22329" width="12.929" height="0.663" fill="#49194f"/>
            </g>
          </g>
        </g>
      </g>
      <g id="Group_1354" data-name="Group 1354" transform="translate(1.619 0.332)">
        <g id="Group_1353" data-name="Group 1353">
          <g id="Group_1352" data-name="Group 1352">
            <g id="Group_1351" data-name="Group 1351">
              <path id="Path_889" data-name="Path 889" d="M439.347,401H376.211l.345-.518c4.113-6.148-.027-10.518-.208-10.7l-.548-.562h63.542V401Zm-61.91-.663h61.247V389.883h-61.4A9.052,9.052,0,0,1,377.437,400.34Z" transform="translate(-375.8 -389.22)" fill="#49194f"/>
            </g>
          </g>
        </g>
      </g>
      <g id="Group_1358" data-name="Group 1358">
        <g id="Group_1357" data-name="Group 1357">
          <g id="Group_1356" data-name="Group 1356">
            <g id="Group_1355" data-name="Group 1355">
              <path id="Path_890" data-name="Path 890" d="M436.974,400.917H372.8a.663.663,0,1,1,0-1.327h63.511V389.8H372.8a.663.663,0,1,1,0-1.327h64.175a.663.663,0,0,1,.663.663v11.12A.669.669,0,0,1,436.974,400.917Z" transform="translate(-372.14 -388.47)" fill="#45b083"/>
            </g>
          </g>
        </g>
      </g>
    </g>
    <g id="Group_1388" data-name="Group 1388" transform="translate(4.879 15.715)">
      <g id="Group_1363" data-name="Group 1363" transform="translate(0.663 0.663)">
        <g id="Group_1362" data-name="Group 1362">
          <g id="Group_1361" data-name="Group 1361">
            <g id="Group_1360" data-name="Group 1360">
              <path id="Path_891" data-name="Path 891" d="M440.658,373.31H384.67V362.19h56.2S436.765,366.852,440.658,373.31Z" transform="translate(-384.67 -362.19)" fill="#fff"/>
            </g>
          </g>
        </g>
      </g>
      <g id="Group_1367" data-name="Group 1367" transform="translate(0.332 0.336)">
        <g id="Group_1366" data-name="Group 1366">
          <g id="Group_1365" data-name="Group 1365">
            <g id="Group_1364" data-name="Group 1364">
              <path id="Path_892" data-name="Path 892" d="M440.823,373.229h-56.9V361.45h57.27l-.482.548c-.159.186-3.9,4.569-.186,10.73Zm-56.24-.663h55.081a9.861,9.861,0,0,1,.142-10.456H384.583Z" transform="translate(-383.92 -361.45)" fill="#49194f"/>
            </g>
          </g>
        </g>
      </g>
      <g id="Group_1371" data-name="Group 1371" transform="translate(0.933 0.663)">
        <g id="Group_1370" data-name="Group 1370">
          <g id="Group_1369" data-name="Group 1369">
            <g id="Group_1368" data-name="Group 1368">
              <path id="Path_893" data-name="Path 893" d="M385.28,362.19s2.481,3.039,2.419,5.56-2.419,5.56-2.419,5.56Z" transform="translate(-385.28 -362.19)" fill="#49194f"/>
            </g>
          </g>
        </g>
      </g>
      <g id="Group_1375" data-name="Group 1375">
        <g id="Group_1374" data-name="Group 1374">
          <g id="Group_1373" data-name="Group 1373">
            <g id="Group_1372" data-name="Group 1372">
              <path id="Path_894" data-name="Path 894" d="M441.612,373.137H383.833a.663.663,0,0,1-.663-.663v-11.12a.663.663,0,0,1,.663-.663h57.779a.663.663,0,1,1,0,1.327H384.5v9.793h57.115a.663.663,0,1,1,0,1.327Z" transform="translate(-383.17 -360.69)" fill="#49194f"/>
            </g>
          </g>
        </g>
      </g>
      <g id="Group_1379" data-name="Group 1379" transform="translate(22.783 2.99)">
        <g id="Group_1378" data-name="Group 1378">
          <g id="Group_1377" data-name="Group 1377">
            <g id="Group_1376" data-name="Group 1376">
              <rect id="Rectangle_22330" data-name="Rectangle 22330" width="32.7" height="0.663" fill="#49194f"/>
            </g>
          </g>
        </g>
      </g>
      <g id="Group_1383" data-name="Group 1383" transform="translate(7.674 4.622)">
        <g id="Group_1382" data-name="Group 1382">
          <g id="Group_1381" data-name="Group 1381">
            <g id="Group_1380" data-name="Group 1380">
              <rect id="Rectangle_22331" data-name="Rectangle 22331" width="47.416" height="0.663" fill="#49194f"/>
            </g>
          </g>
        </g>
      </g>
      <g id="Group_1387" data-name="Group 1387" transform="translate(15.18 7.448)">
        <g id="Group_1386" data-name="Group 1386">
          <g id="Group_1385" data-name="Group 1385">
            <g id="Group_1384" data-name="Group 1384">
              <rect id="Rectangle_22332" data-name="Rectangle 22332" width="39.914" height="0.663" fill="#49194f"/>
            </g>
          </g>
        </g>
      </g>
    </g>
    <g id="Group_1392" data-name="Group 1392" transform="translate(10.049 0.898)">
      <g id="Group_1391" data-name="Group 1391">
        <g id="Group_1390" data-name="Group 1390">
          <g id="Group_1389" data-name="Group 1389">
            <path id="Path_895" data-name="Path 895" d="M444.784,343.334h-49.26a.663.663,0,0,1-.663-.663V327.853a.663.663,0,0,1,.663-.663h49.26a.663.663,0,0,1,0,1.327h-48.6v13.495h48.6a.661.661,0,1,1,0,1.322Z" transform="translate(-394.86 -327.19)" fill="#49194f"/>
          </g>
        </g>
      </g>
    </g>
    <g id="Group_1396" data-name="Group 1396" transform="translate(20.262 6.758)">
      <g id="Group_1395" data-name="Group 1395">
        <g id="Group_1394" data-name="Group 1394">
          <g id="Group_1393" data-name="Group 1393">
            <path id="Path_896" data-name="Path 896" d="M455.484,341.1h-37.2a.332.332,0,0,1,0-.663h37.2a.332.332,0,1,1,0,.663Z" transform="translate(-417.95 -340.44)" fill="#fff"/>
          </g>
        </g>
      </g>
    </g>
    <g id="Group_1400" data-name="Group 1400" transform="translate(34.022 12.018)">
      <g id="Group_1399" data-name="Group 1399">
        <g id="Group_1398" data-name="Group 1398">
          <g id="Group_1397" data-name="Group 1397">
            <path id="Path_897" data-name="Path 897" d="M472.834,352.993H449.392a.332.332,0,0,1,0-.663h23.442a.334.334,0,0,1,.332.332A.329.329,0,0,1,472.834,352.993Z" transform="translate(-449.06 -352.33)" fill="#fff"/>
          </g>
        </g>
      </g>
    </g>
    <g id="Group_1404" data-name="Group 1404" transform="translate(29.338 13.623)">
      <g id="Group_1403" data-name="Group 1403">
        <g id="Group_1402" data-name="Group 1402">
          <g id="Group_1401" data-name="Group 1401">
            <path id="Path_898" data-name="Path 898" d="M466.928,356.623H438.8a.332.332,0,0,1,0-.663h28.127a.332.332,0,0,1,0,.663Z" transform="translate(-438.47 -355.96)" fill="#fff"/>
          </g>
        </g>
      </g>
    </g>
    <g id="Group_1408" data-name="Group 1408" transform="translate(22.465 4.817)">
      <g id="Group_1407" data-name="Group 1407">
        <g id="Group_1406" data-name="Group 1406">
          <g id="Group_1405" data-name="Group 1405">
            <path id="Path_899" data-name="Path 899" d="M429.932,357.714q-1.692,2.866-3.388,5.732-1.8-2.866-3.614-5.732V336.05h7.006v21.664Z" transform="translate(-422.93 -336.05)" fill="#fff"/>
          </g>
        </g>
      </g>
    </g>
    <g id="Group_1412" data-name="Group 1412" transform="translate(21.43 4.817)">
      <g id="Group_1411" data-name="Group 1411">
        <g id="Group_1410" data-name="Group 1410">
          <g id="Group_1409" data-name="Group 1409">
            <path id="Path_900" data-name="Path 900" d="M427.592,357.714q-1.7,2.866-3.388,5.732-1.8-2.866-3.614-5.732V336.05H427.6v21.664Z" transform="translate(-420.59 -336.05)" fill="#da291c"/>
          </g>
        </g>
      </g>
    </g>
    <g id="Group_1416" data-name="Group 1416" transform="translate(22.133 4.485)">
      <g id="Group_1415" data-name="Group 1415">
        <g id="Group_1414" data-name="Group 1414">
          <g id="Group_1413" data-name="Group 1413">
            <path id="Path_901" data-name="Path 901" d="M426.134,363.661l-3.954-6.272V335.3h7.67v22.085Zm-3.3-6.462,3.273,5.188,3.07-5.184v-21.24h-6.343Z" transform="translate(-422.18 -335.3)" fill="#49194f"/>
          </g>
        </g>
      </g>
    </g>
    <g id="Group_1420" data-name="Group 1420" transform="translate(16.98 4.485)">
      <g id="Group_1419" data-name="Group 1419">
        <g id="Group_1418" data-name="Group 1418">
          <g id="Group_1417" data-name="Group 1417">
            <path id="Path_902" data-name="Path 902" d="M451.346,335.963H410.862a.332.332,0,0,1,0-.663h40.485a.332.332,0,1,1,0,.663Z" transform="translate(-410.53 -335.3)" fill="#fff"/>
          </g>
        </g>
      </g>
    </g>
  </g>
  <g id="Group_1464" data-name="Group 1464" transform="translate(26.986 52.104)">
    <g id="Group_1430" data-name="Group 1430" transform="translate(0 0.743)">
      <g id="Group_1425" data-name="Group 1425" transform="translate(0 0.06)">
        <g id="Group_1424" data-name="Group 1424" transform="translate(0 0)">
          <g id="Group_1423" data-name="Group 1423">
            <g id="Group_1422" data-name="Group 1422">
              <ellipse id="Ellipse_39" data-name="Ellipse 39" cx="5.038" cy="5.038" rx="5.038" ry="5.038" transform="translate(0 9.829) rotate(-77.28)" fill="#fff"/>
            </g>
          </g>
        </g>
      </g>
      <g id="Group_1429" data-name="Group 1429" transform="translate(0.136)">
        <g id="Group_1428" data-name="Group 1428">
          <g id="Group_1427" data-name="Group 1427">
            <g id="Group_1426" data-name="Group 1426">
              <path id="Path_903" data-name="Path 903" d="M430.5,410.9a5.37,5.37,0,1,1,5.37-5.37A5.375,5.375,0,0,1,430.5,410.9Zm0-10.08a4.711,4.711,0,1,0,4.711,4.711A4.714,4.714,0,0,0,430.5,400.819Z" transform="translate(-425.13 -400.16)" fill="#49194f"/>
            </g>
          </g>
        </g>
      </g>
    </g>
    <g id="Group_1439" data-name="Group 1439" transform="translate(14.003 0.743)">
      <g id="Group_1434" data-name="Group 1434" transform="translate(0.011 0.319)">
        <g id="Group_1433" data-name="Group 1433" transform="translate(0 0)">
          <g id="Group_1432" data-name="Group 1432">
            <g id="Group_1431" data-name="Group 1431">
              <ellipse id="Ellipse_40" data-name="Ellipse 40" cx="5.038" cy="5.038" rx="5.038" ry="5.038" transform="translate(0 9.945) rotate(-80.747)" fill="#fff"/>
            </g>
          </g>
        </g>
      </g>
      <g id="Group_1438" data-name="Group 1438">
        <g id="Group_1437" data-name="Group 1437">
          <g id="Group_1436" data-name="Group 1436">
            <g id="Group_1435" data-name="Group 1435">
              <path id="Path_904" data-name="Path 904" d="M461.85,410.9a5.37,5.37,0,1,1,5.37-5.37A5.375,5.375,0,0,1,461.85,410.9Zm0-10.08a4.711,4.711,0,1,0,4.711,4.711A4.714,4.714,0,0,0,461.85,400.819Z" transform="translate(-456.48 -400.16)" fill="#49194f"/>
            </g>
          </g>
        </g>
      </g>
    </g>
    <g id="Group_1443" data-name="Group 1443" transform="translate(10.248 4.282)">
      <g id="Group_1442" data-name="Group 1442">
        <g id="Group_1441" data-name="Group 1441">
          <g id="Group_1440" data-name="Group 1440">
            <path id="Path_905" data-name="Path 905" d="M448.583,410.137l-.593-.3c.035-.071.854-1.681,2.313-1.681,1.491,0,2.061,1.65,2.088,1.721l-.628.212c0-.013-.447-1.269-1.46-1.269C449.255,408.823,448.592,410.124,448.583,410.137Z" transform="translate(-447.99 -408.16)" fill="#49194f"/>
          </g>
        </g>
      </g>
    </g>
    <g id="Group_1447" data-name="Group 1447" transform="translate(23.84)">
      <g id="Group_1446" data-name="Group 1446">
        <g id="Group_1445" data-name="Group 1445">
          <g id="Group_1444" data-name="Group 1444">
            <path id="Path_906" data-name="Path 906" d="M479.109,406.778l-.389-.535c.027-.022,2.84-2.066,5.75-4.025,6.033-4.056,6.6-3.813,6.9-3.68a3.023,3.023,0,0,1,1.367,2.632,2.264,2.264,0,0,1-1.159,2.216l-.3-.593a1.665,1.665,0,0,0,.792-1.606,2.466,2.466,0,0,0-.969-2.043C490.309,399.028,484.382,402.938,479.109,406.778Z" transform="translate(-478.72 -398.48)" fill="#49194f"/>
          </g>
        </g>
      </g>
    </g>
    <g id="Group_1451" data-name="Group 1451" transform="translate(2.336 2.682)">
      <g id="Group_1450" data-name="Group 1450">
        <g id="Group_1449" data-name="Group 1449">
          <g id="Group_1448" data-name="Group 1448">
            <path id="Path_907" data-name="Path 907" d="M430.433,410.5a.341.341,0,0,1-.066-.009.327.327,0,0,1-.257-.394c.027-.119.057-.283,5.1-5.449a.332.332,0,0,1,.473.464c-1.791,1.836-4.7,4.848-4.949,5.2A.353.353,0,0,1,430.433,410.5Z" transform="translate(-430.102 -404.544)" fill="#49194f"/>
          </g>
        </g>
      </g>
    </g>
    <g id="Group_1455" data-name="Group 1455" transform="translate(5.175 4.619)">
      <g id="Group_1454" data-name="Group 1454">
        <g id="Group_1453" data-name="Group 1453">
          <g id="Group_1452" data-name="Group 1452">
            <path id="Path_908" data-name="Path 908" d="M436.853,412.6a.332.332,0,0,1-.243-.557l2.8-3.012a.332.332,0,1,1,.487.451l-2.8,3.012A.332.332,0,0,1,436.853,412.6Z" transform="translate(-436.522 -408.922)" fill="#49194f"/>
          </g>
        </g>
      </g>
    </g>
    <g id="Group_1459" data-name="Group 1459" transform="translate(15.857 2.771)">
      <g id="Group_1458" data-name="Group 1458">
        <g id="Group_1457" data-name="Group 1457">
          <g id="Group_1456" data-name="Group 1456">
            <path id="Path_909" data-name="Path 909" d="M461,410.7a.339.339,0,0,1-.066-.009.325.325,0,0,1-.257-.389c.027-.119.058-.283,5.1-5.454a.332.332,0,1,1,.473.464c-1.791,1.836-4.693,4.848-4.949,5.2A.342.342,0,0,1,461,410.7Z" transform="translate(-460.672 -404.744)" fill="#49194f"/>
          </g>
        </g>
      </g>
    </g>
    <g id="Group_1463" data-name="Group 1463" transform="translate(18.701 4.707)">
      <g id="Group_1462" data-name="Group 1462">
        <g id="Group_1461" data-name="Group 1461">
          <g id="Group_1460" data-name="Group 1460">
            <path id="Path_910" data-name="Path 910" d="M467.433,412.8a.338.338,0,0,1-.226-.089.334.334,0,0,1-.018-.469l2.8-3.012a.332.332,0,0,1,.487.451l-2.8,3.012A.332.332,0,0,1,467.433,412.8Z" transform="translate(-467.102 -409.122)" fill="#49194f"/>
          </g>
        </g>
      </g>
    </g>
  </g>
</svg>
